<svg width="23" height="22" viewBox="0 0 23 22" fill="none" xmlns="http://www.w3.org/2000/svg">
<path d="M17.25 0.88C18.5306 0.881165 19.7584 1.36829 20.664 2.23445C21.5695 3.10062 22.0788 4.27506 22.08 5.5V16.5C22.0788 17.7249 21.5695 18.8994 20.664 19.7655C19.7584 20.6317 18.5306 21.1188 17.25 21.12H5.75C4.46938 21.1188 3.24156 20.6317 2.33602 19.7655C1.43048 18.8994 0.921218 17.7249 0.92 16.5V5.5C0.921218 4.27506 1.43048 3.10062 2.33602 2.23445C3.24156 1.36829 4.46938 0.881165 5.75 0.88H17.25ZM17.25 0H5.75C4.22501 0 2.76247 0.579463 1.68414 1.61091C0.605802 2.64236 0 4.04131 0 5.5V16.5C0 17.2223 0.148728 17.9375 0.437693 18.6048C0.726657 19.272 1.1502 19.8784 1.68414 20.3891C2.76247 21.4205 4.22501 22 5.75 22H17.25C18.0051 22 18.7528 21.8577 19.4504 21.5813C20.1481 21.3049 20.7819 20.8998 21.3159 20.3891C21.8498 19.8784 22.2733 19.272 22.5623 18.6048C22.8513 17.9375 23 17.2223 23 16.5V5.5C23 4.77773 22.8513 4.06253 22.5623 3.39524C22.2733 2.72795 21.8498 2.12163 21.3159 1.61091C20.7819 1.10019 20.1481 0.695063 19.4504 0.418662C18.7528 0.142262 18.0051 0 17.25 0Z" fill="black"/>
<path d="M11.4966 6.59875C12.4064 6.59875 13.2957 6.85681 14.0522 7.34028C14.8087 7.82376 15.3982 8.51095 15.7464 9.31494C16.0946 10.1189 16.1857 11.0036 16.0082 11.8571C15.8307 12.7107 15.3926 13.4947 14.7493 14.11C14.1059 14.7254 13.2863 15.1444 12.394 15.3142C11.5017 15.484 10.5768 15.3968 9.73622 15.0638C8.89568 14.7308 8.17726 14.1668 7.6718 13.4433C7.16635 12.7197 6.89656 11.869 6.89656 10.9987C6.89656 9.8318 7.38121 8.71264 8.24387 7.88748C9.10654 7.06232 10.2766 6.59875 11.4966 6.59875ZM11.4966 5.71875C10.4048 5.71875 9.33758 6.02842 8.42982 6.60859C7.52206 7.18876 6.81455 8.01339 6.39675 8.97818C5.97895 9.94298 5.86964 11.0046 6.08263 12.0288C6.29562 13.053 6.82135 13.9939 7.59334 14.7323C8.36532 15.4707 9.34889 15.9736 10.4197 16.1773C11.4904 16.381 12.6003 16.2765 13.609 15.8768C14.6176 15.4772 15.4797 14.8005 16.0863 13.9322C16.6928 13.0639 17.0166 12.043 17.0166 10.9987C17.0166 9.59841 16.435 8.25542 15.3998 7.26523C14.3646 6.27503 12.9606 5.71875 11.4966 5.71875Z" fill="black"/>
<path d="M17.9416 3.52062C18.1235 3.52062 18.3014 3.57224 18.4527 3.66893C18.604 3.76563 18.7219 3.90306 18.7915 4.06386C18.8612 4.22466 18.8794 4.4016 18.8439 4.5723C18.8084 4.74301 18.7208 4.89981 18.5921 5.02288C18.4634 5.14595 18.2995 5.22976 18.121 5.26372C17.9426 5.29767 17.7576 5.28024 17.5895 5.21364C17.4214 5.14703 17.2777 5.03424 17.1766 4.88953C17.0755 4.74481 17.0216 4.57467 17.0216 4.40062C17.0216 4.16723 17.1185 3.9434 17.291 3.77837C17.4636 3.61334 17.6976 3.52062 17.9416 3.52062ZM17.9416 2.64062C17.5776 2.64062 17.2219 2.74385 16.9193 2.93724C16.6167 3.13063 16.3809 3.4055 16.2416 3.7271C16.1024 4.0487 16.0659 4.40258 16.1369 4.74398C16.2079 5.08539 16.3832 5.39899 16.6405 5.64513C16.8978 5.89127 17.2257 6.0589 17.5826 6.12681C17.9395 6.19472 18.3095 6.15986 18.6457 6.02665C18.9819 5.89344 19.2693 5.66786 19.4715 5.37843C19.6736 5.089 19.7816 4.74872 19.7816 4.40062C19.7816 3.93384 19.5877 3.48618 19.2426 3.15612C18.8976 2.82605 18.4296 2.64063 17.9416 2.64062Z" fill="black"/>
</svg>
