<svg width="17" height="14" viewBox="0 0 17 14" fill="none" xmlns="http://www.w3.org/2000/svg">
<path d="M16.4014 1.83253C15.802 2.10428 15.1681 2.28392 14.5195 2.36586C15.2038 1.93863 15.7166 1.26652 15.9628 0.474198C15.3198 0.874251 14.6158 1.15611 13.8816 1.30753C13.3908 0.751341 12.7373 0.381112 12.0234 0.254908C11.3096 0.128704 10.5759 0.253664 9.9374 0.610189C9.29887 0.966715 8.79163 1.53464 8.49524 2.2249C8.19884 2.91515 8.13006 3.68869 8.29968 4.4242C6.99944 4.35547 5.72757 4.00166 4.56671 3.38575C3.40584 2.76984 2.38195 1.90561 1.56153 0.849198C1.27377 1.37434 1.12257 1.96905 1.12295 2.5742C1.12193 3.13618 1.2539 3.68971 1.50711 4.1855C1.76032 4.68129 2.12691 5.10396 2.57425 5.41586C2.05431 5.40108 1.54549 5.25528 1.09106 4.99086V5.03253C1.09495 5.81994 1.35898 6.58177 1.83848 7.18917C2.31799 7.79656 2.98352 8.21223 3.72252 8.36586C3.43805 8.45634 3.1427 8.50404 2.84537 8.50753C2.63955 8.50502 2.43424 8.48551 2.23136 8.4492C2.4418 9.12654 2.84905 9.71849 3.39644 10.1427C3.94383 10.5668 4.60412 10.8022 5.28545 10.8159C4.13495 11.7619 2.7145 12.2782 1.25054 12.2825C0.983992 12.2834 0.717656 12.2667 0.453125 12.2325C1.94782 13.2411 3.68968 13.7765 5.46886 13.7742C6.69663 13.7875 7.91463 13.545 9.05173 13.0609C10.1888 12.5768 11.2222 11.8608 12.0915 10.9546C12.9609 10.0485 13.6487 8.97036 14.1149 7.78329C14.581 6.59622 14.8162 5.32397 14.8066 4.04086C14.8066 3.8992 14.8066 3.7492 14.8066 3.5992C15.4323 3.11154 15.972 2.51372 16.4014 1.83253Z" fill="white"/>
</svg>
